<svg width="127" height="76" viewBox="0 0 127 76" fill="none" xmlns="http://www.w3.org/2000/svg">
<path d="M30.0273 20.0003H53.9297V21.889H32.2184V36.1043H52.635V37.993H32.2184V53.6H54.1787V55.4888H30.0273V20.0003ZM56.071 20.0003H58.6106L69.8646 35.6073L81.3676 20.0003L97.0136 0.175781L71.3087 37.2475L84.5546 55.4888H81.9154L69.8646 38.8877L57.764 55.4888H55.1746L68.5201 37.2475L56.071 20.0003ZM85.5007 21.889V20.0003H112.739V21.889H100.191V55.4888H97.9997V21.889H85.5007Z" fill="white"/>
<path d="M0.124512 20.0002H2.86332L40.6299 76.1857L25.0228 55.4888L2.41515 22.6842L2.31556 55.4888H0.124512V20.0002Z" fill="white"/>
<path d="M112.519 53.03C112.972 53.03 113.302 52.6852 113.302 52.2396C113.302 51.794 112.972 51.4491 112.519 51.4491C112.071 51.4491 111.735 51.794 111.735 52.2396C111.735 52.6852 112.071 53.03 112.519 53.03ZM114.672 50.9505C114.672 52.2661 115.626 53.1255 117.017 53.1255C118.498 53.1255 119.393 52.2396 119.393 50.7011V45.2847H118.2V50.6958C118.2 51.5499 117.768 52.0062 117.006 52.0062C116.324 52.0062 115.86 51.5818 115.844 50.9505H114.672ZM120.955 50.8815C121.04 52.2502 122.186 53.1255 123.891 53.1255C125.714 53.1255 126.854 52.2078 126.854 50.7436C126.854 49.5924 126.204 48.9558 124.627 48.5897L123.779 48.3828C122.777 48.1494 122.372 47.8364 122.372 47.29C122.372 46.6003 123.001 46.1494 123.944 46.1494C124.84 46.1494 125.458 46.5897 125.57 47.2953H126.732C126.662 46.0062 125.522 45.099 123.96 45.099C122.282 45.099 121.163 46.0062 121.163 47.3696C121.163 48.4942 121.797 49.1627 123.188 49.4863L124.179 49.725C125.197 49.9637 125.644 50.3139 125.644 50.8974C125.644 51.5765 124.941 52.0698 123.982 52.0698C122.953 52.0698 122.239 51.6083 122.138 50.8815H120.955Z" fill="white"/>
</svg>
